<?xml version="1.0" standalone="no"?>
<!DOCTYPE svg PUBLIC "-//W3C//DTD SVG 20010904//EN"
 "http://www.w3.org/TR/2001/REC-SVG-20010904/DTD/svg10.dtd">
<svg version="1.0" xmlns="http://www.w3.org/2000/svg"
 width="225.000000pt" height="225.000000pt" viewBox="0 0 225.000000 225.000000"
 preserveAspectRatio="xMidYMid meet">

<g transform="translate(0.000000,225.000000) scale(0.100000,-0.100000)"
fill="#000000" stroke="none">
<path d="M1085 1775 c-168 -30 -350 -108 -475 -203 -82 -62 -195 -183 -238
-254 -109 -183 -116 -414 -18 -583 39 -66 138 -152 218 -190 111 -53 214 -76
364 -82 574 -24 1028 279 1028 687 -1 294 -189 480 -530 522 -157 19 -358 -11
-518 -79 -125 -52 -293 -182 -280 -216 3 -10 10 -17 15 -17 5 0 41 27 80 59
119 100 286 176 443 202 122 19 303 8 405 -26 201 -68 303 -187 331 -387 47
-331 -246 -614 -715 -688 -90 -15 -294 -15 -376 0 -255 44 -424 174 -475 365
-19 68 -17 190 2 256 57 191 222 372 438 481 169 85 310 118 507 118 120 0
129 1 129 19 0 11 -9 21 -22 25 -39 10 -240 5 -313 -9z"/>
<path d="M1335 1420 c-53 -21 -59 -79 -13 -113 58 -43 149 16 117 75 -12 22
-12 22 -20 2 -9 -27 -35 -37 -60 -24 -21 12 -25 40 -7 58 14 14 11 14 -17 2z
m15 -90 c0 -5 -7 -10 -15 -10 -8 0 -15 5 -15 10 0 6 7 10 15 10 8 0 15 -4 15
-10z"/>
<path d="M765 1235 c-31 -30 -32 -55 -2 -83 47 -45 137 -17 137 41 0 33 -11
40 -27 17 -29 -41 -101 -11 -75 31 18 28 -4 24 -33 -6z m55 -63 c0 -13 -12
-22 -22 -16 -10 6 -1 24 13 24 5 0 9 -4 9 -8z"/>
<path d="M1651 969 c-76 -63 -264 -141 -421 -175 -114 -25 -385 -26 -480 -2
-36 9 -66 15 -68 13 -2 -1 5 -18 14 -38 18 -38 45 -52 159 -82 93 -25 282 -30
391 -11 248 43 404 146 438 289 8 32 0 34 -33 6z"/>
</g>
</svg>
